<?xml version="1.0" encoding="UTF-8"?>
<svg version="1.1" xmlns="http://www.w3.org/2000/svg" width="149" height="120">
<path d="M0 0 C49.17 0 98.34 0 149 0 C149 39.6 149 79.2 149 120 C99.83 120 50.66 120 0 120 C0 80.4 0 40.8 0 0 Z " fill="#2D2D2C" transform="translate(0,0)"/>
<path d="M0 0 C3.74499924 1.68524966 6.10976961 5.06994905 8.8125 8.078125 C10.79153651 10.11287001 10.79153651 10.11287001 12.90234375 9.9140625 C17.07960748 7.95189825 21.03589157 5.609467 25.03515625 3.3125 C28.03125 1.9140625 28.03125 1.9140625 31.03125 2.9140625 C34.70127999 6.41443174 37.44951135 10.38978925 38.15625 15.4765625 C37.99609375 17.75 37.99609375 17.75 37.03125 19.9140625 C33.37773786 22.94320116 29.28659691 24.85739311 25.03125 26.9140625 C22.98500697 28.05170315 20.94297524 29.19696859 18.90625 30.3515625 C14.28973564 32.9140625 14.28973564 32.9140625 12.03125 32.9140625 C12.03125 31.5940625 12.03125 30.2740625 12.03125 28.9140625 C11.144375 28.6253125 10.2575 28.3365625 9.34375 28.0390625 C6.03125 26.9140625 6.03125 26.9140625 3.65625 25.7265625 C-2.89579614 23.69854822 -10.58004529 26.69932401 -17.015625 28.29296875 C-19.96875 28.9140625 -19.96875 28.9140625 -23.96875 28.9140625 C-23.96875 27.5940625 -23.96875 26.2740625 -23.96875 24.9140625 C-20.3898342 23.87728472 -16.80505603 22.86245251 -13.21875 21.8515625 C-12.20296875 21.55701172 -11.1871875 21.26246094 -10.140625 20.95898438 C-9.1609375 20.68505859 -8.18125 20.41113281 -7.171875 20.12890625 C-6.27114258 19.87230225 -5.37041016 19.61569824 -4.44238281 19.35131836 C0.04220361 18.55859291 2.94317452 20.27531333 6.78125 22.4765625 C7.58046875 22.93160156 8.3796875 23.38664062 9.203125 23.85546875 C9.80640625 24.20480469 10.4096875 24.55414063 11.03125 24.9140625 C11.03125 23.5940625 11.03125 22.2740625 11.03125 20.9140625 C7.69405047 17.75103831 3.47279676 14.99898587 -1.21484375 14.8359375 C-3.57442797 15.33816093 -5.71240259 16.05795641 -7.96875 16.9140625 C-10.05035731 17.62745222 -12.13377545 18.33557475 -14.21875 19.0390625 C-15.19328125 19.39226563 -16.1678125 19.74546875 -17.171875 20.109375 C-19.92876159 20.90255745 -22.11942298 21.07004756 -24.96875 20.9140625 C-24.96875 19.9240625 -24.96875 18.9340625 -24.96875 17.9140625 C-21.06160041 16.34745779 -17.14185844 14.81521453 -13.21875 13.2890625 C-12.10757813 12.84304687 -10.99640625 12.39703125 -9.8515625 11.9375 C-8.78164063 11.525 -7.71171875 11.1125 -6.609375 10.6875 C-5.13259277 10.10621338 -5.13259277 10.10621338 -3.62597656 9.51318359 C-0.96875 8.9140625 -0.96875 8.9140625 1.23632812 9.6953125 C3.4923912 11.22717688 5.64544115 12.842979 7.78125 14.5390625 C8.58046875 15.17070312 9.3796875 15.80234375 10.203125 16.453125 C10.80640625 16.93523438 11.4096875 17.41734375 12.03125 17.9140625 C11.72952156 14.62351465 11.34103789 13.22093337 8.95703125 10.859375 C7.66345703 9.95832031 7.66345703 9.95832031 6.34375 9.0390625 C5.49425781 8.42289063 4.64476563 7.80671875 3.76953125 7.171875 C-0.84080929 5.05414368 -4.42165465 6.66491896 -8.94921875 8.32421875 C-10.35372339 8.86946611 -11.75604998 9.42035401 -13.15625 9.9765625 C-20.57058066 12.9140625 -20.57058066 12.9140625 -23.96875 12.9140625 C-23.29440067 10.55902716 -22.48858578 9.2239341 -20.36816406 7.95996094 C-18.29726818 7.00885983 -16.2096112 6.13540698 -14.09375 5.2890625 C-12.65855876 4.69341962 -11.22365398 4.09708596 -9.7890625 3.5 C-9.11649414 3.22768555 -8.44392578 2.95537109 -7.75097656 2.67480469 C-5.8527129 1.90311753 -5.8527129 1.90311753 -3.7109375 0.640625 C-1.96875 -0.0859375 -1.96875 -0.0859375 0 0 Z " fill="#BE9337" transform="translate(58.96875,16.0859375)"/>
<path d="M0 0 C0.95390625 0.3688028 1.9078125 0.73760559 2.890625 1.11758423 C4.90209803 1.89663099 6.91249552 2.67845979 8.921875 3.46289062 C11.98704251 4.65900612 15.05568432 5.84582519 18.125 7.03125 C20.08354562 7.79111972 22.04188595 8.55151883 24 9.3125 C25.36898437 9.84235001 25.36898437 9.84235001 26.765625 10.38290405 C31.30089765 12.15730614 35.69060441 14.01830162 40 16.2890625 C36.15792965 17.56975262 33.55902538 16.60509096 29.796875 15.55859375 C29.08202942 15.36690109 28.36718384 15.17520844 27.63067627 14.97770691 C25.33491617 14.36016309 23.04249514 13.73110655 20.75 13.1015625 C19.25281305 12.69649277 17.75541888 12.29218814 16.2578125 11.88867188 C15.52091187 11.68958221 14.78401123 11.49049255 14.02478027 11.28536987 C12.53805448 10.88379262 11.05115609 10.48285385 9.56408691 10.08255005 C5.972914 9.1118386 2.39300458 8.11694876 -1.17382812 7.06005859 C-1.838078 6.86876877 -2.50232788 6.67747894 -3.18670654 6.48039246 C-4.98124857 5.96274048 -6.77157347 5.43053074 -8.56152344 4.8972168 C-15.16519333 3.72924309 -21.41588205 5.49610767 -27.8125 7.14453125 C-28.89812225 7.41805923 -28.89812225 7.41805923 -30.00567627 7.69711304 C-32.33825943 8.28585236 -34.66911199 8.88115116 -37 9.4765625 C-38.60892918 9.88385766 -40.21797962 10.29067412 -41.82714844 10.69702148 C-45.0383123 11.50842049 -48.24888572 12.32209262 -51.45898438 13.13769531 C-57.71822995 14.72673285 -63.98399053 16.2894277 -70.25 17.8515625 C-72.17191128 18.33188612 -74.09379056 18.81233781 -76.015625 19.29296875 C-78.0078125 19.79101562 -78.0078125 19.79101562 -80 20.2890625 C-79.505 18.8040625 -79.505 18.8040625 -79 17.2890625 C-76.50097656 16.09741211 -76.50097656 16.09741211 -73.140625 14.94140625 C-72.53198608 14.72838364 -71.92334717 14.51536102 -71.29626465 14.29588318 C-69.28454446 13.59486997 -67.26750422 12.91073229 -65.25 12.2265625 C-63.85673559 11.74469419 -62.46383526 11.26177198 -61.07128906 10.77783203 C-58.1787158 9.77496066 -55.28382537 8.77924908 -52.38671875 7.78955078 C-48.11821037 6.33133309 -43.85542949 4.85694264 -39.59375 3.37890625 C-14.01152607 -5.48515747 -14.01152607 -5.48515747 0 0 Z " fill="#BF933D" transform="translate(91,72.7109375)"/>
<path d="M0 0 C1.65 1.65 3.3 3.3 5 5 C5.66136963 5.495 6.32273926 5.99 7.00415039 6.5 C9.92199554 8.95746958 11.70090589 11.25671444 12.35955811 15.09570312 C12.88293057 21.3922616 12.63588795 27.69329529 12.4375 34 C12.40235314 35.93874596 12.37042007 37.877553 12.34179688 39.81640625 C12.26500946 44.54578853 12.1444106 49.27221904 12 54 C8.04 52.35 4.08 50.7 0 49 C0 32.83 0 16.66 0 0 Z " fill="#C2953A" transform="translate(110,28)"/>
<path d="M0 0 C10.06959581 2.77034733 20.18639684 5.1715614 30.39624023 7.36962891 C31.44884033 7.60343262 32.50144043 7.83723633 33.5859375 8.078125 C34.52356934 8.28083008 35.46120117 8.48353516 36.42724609 8.69238281 C37.48419678 9.03027832 37.48419678 9.03027832 38.5625 9.375 C39.0575 10.365 39.0575 10.365 39.5625 11.375 C27.91924808 10.81494215 16.59348507 9.30313818 5.09472656 7.45629883 C-10.67929418 4.94046439 -24.17838926 5.72202107 -39.875 8.25 C-53.37105016 10.40803369 -66.82255263 12.15357749 -80.4375 13.375 C-80.4375 12.715 -80.4375 12.055 -80.4375 11.375 C-67.46465654 8.20198851 -54.45764009 5.25744643 -41.38574219 2.51904297 C-35.93312226 1.36992413 -30.54058148 0.14745701 -25.16015625 -1.3046875 C-16.01324597 -3.59630848 -8.97199848 -2.56342814 0 0 Z " fill="#C29635" transform="translate(91.4375,83.625)"/>
<path d="M0 0 C0.73243423 0.08235901 1.46486847 0.16471802 2.21949768 0.24957275 C5.85089693 0.67235897 9.42051957 1.18849337 12.9921875 1.97265625 C12.9921875 2.30265625 12.9921875 2.63265625 12.9921875 2.97265625 C-26.6078125 2.97265625 -66.2078125 2.97265625 -107.0078125 2.97265625 C-107.0078125 2.64265625 -107.0078125 2.31265625 -107.0078125 1.97265625 C-101.72864171 1.41770506 -96.44909289 0.86654048 -91.16918945 0.31860352 C-89.3800233 0.13242247 -87.59095707 -0.05472191 -85.80200195 -0.24291992 C-56.66707685 -3.30588513 -29.1008022 -3.29116778 0 0 Z " fill="#CE9B2F" transform="translate(118.0078125,97.02734375)"/>
<path d="M0 0 C2.03165291 0.53449255 4.06592112 1.05789225 6.10083008 1.57983398 C14.08985177 3.64906668 21.94521845 5.99193539 29.7355957 8.72631836 C29.7355957 9.71631836 29.7355957 10.70631836 29.7355957 11.72631836 C23.72681772 11.16539568 18.11868462 10.22538374 12.2980957 8.65991211 C10.72784679 8.25276575 9.15753227 7.84587234 7.5871582 7.43920898 C5.15736992 6.80230993 2.72858257 6.16195396 0.30102539 5.51660156 C-2.07257813 4.88819602 -4.44940688 4.27339471 -6.8269043 3.65991211 C-7.89606079 3.36932167 -7.89606079 3.36932167 -8.98681641 3.07286072 C-16.022438 1.27114647 -22.76399156 1.08022192 -29.84643555 2.82788086 C-30.84771484 3.06821045 -31.84899414 3.30854004 -32.88061523 3.55615234 C-33.93539062 3.81855713 -34.99016602 4.08096191 -36.0769043 4.35131836 C-38.36947364 4.89856721 -40.66245876 5.44407655 -42.95581055 5.98803711 C-44.73882568 6.41415283 -44.73882568 6.41415283 -46.55786133 6.84887695 C-52.86484027 8.3419136 -59.18541991 9.76734625 -65.5144043 11.16381836 C-67.28908081 11.57011475 -67.28908081 11.57011475 -69.09960938 11.98461914 C-70.21102295 12.22809082 -71.32243652 12.4715625 -72.4675293 12.72241211 C-73.44367188 12.94082764 -74.41981445 13.15924316 -75.42553711 13.38427734 C-78.5887476 13.76539687 -81.16140599 13.38833345 -84.2644043 12.72631836 C-81.34331055 11.15038339 -78.55817172 10.1653466 -75.34741211 9.33764648 C-73.8850412 8.95715149 -73.8850412 8.95715149 -72.39312744 8.56896973 C-71.34518005 8.30120728 -70.29723267 8.03344482 -69.2175293 7.75756836 C-68.13236023 7.47659302 -67.04719116 7.19561768 -65.92913818 6.90612793 C-62.4586344 6.0086365 -58.98654898 5.11743804 -55.5144043 4.22631836 C-53.19138288 3.62646347 -50.86846497 3.02620757 -48.5456543 2.42553711 C-37.79678202 -0.35089022 -37.79678202 -0.35089022 -32.87715149 -1.60346985 C-31.21898857 -2.02881538 -29.56290301 -2.46241221 -27.90983582 -2.90715027 C-18.22484921 -5.47267773 -9.47508238 -2.49606898 0 0 Z " fill="#2C2B23" transform="translate(96.264404296875,80.273681640625)"/>
<path d="M0 0 C27.58852179 -0.15115087 55.16488377 0.09922148 82.75 0.5 C83.98494705 0.51793673 83.98494705 0.51793673 85.24484253 0.53623581 C95.4966424 0.68561675 105.74835522 0.84031946 116 1 C116 1.33 116 1.66 116 2 C114.41131104 2.17390259 114.41131104 2.17390259 112.79052734 2.35131836 C108.84307443 2.78386897 104.895868 3.21863436 100.94873047 3.65405273 C99.24371832 3.84182727 97.53864082 4.02900942 95.83349609 4.21557617 C93.37580017 4.48458842 90.91835087 4.7557639 88.4609375 5.02734375 C87.70444916 5.10967758 86.94796082 5.19201141 86.16854858 5.27684021 C83.04246866 5.62407316 79.95998102 6.00697579 76.85986328 6.54736328 C62.40004648 8.83594962 46.92888464 6.01594813 32.5 4.5625 C30.12245742 4.32944893 27.74485353 4.09702251 25.3671875 3.86523438 C6.77059825 2.03664378 6.77059825 2.03664378 0 1 C0 0.67 0 0.34 0 0 Z " fill="#B69040" transform="translate(11,103)"/>
<path d="M0 0 C0.33 0 0.66 0 1 0 C1.495 8.415 1.495 8.415 2 17 C2.66 17 3.32 17 4 17 C4 12.71 4 8.42 4 4 C8.10558718 1.94720641 9.80206685 1.7783058 14.25 1.875 C15.32765625 1.89304688 16.4053125 1.91109375 17.515625 1.9296875 C18.74539062 1.96449219 18.74539062 1.96449219 20 2 C18.68 2.33 17.36 2.66 16 3 C16.495 3.99 16.495 3.99 17 5 C19.3140622 5.73075648 21.64828869 6.40138258 24 7 C24.495 8.98 24.495 8.98 25 11 C26.65 11 28.3 11 30 11 C30.495 12.485 30.495 12.485 31 14 C19.49234972 18.08082011 7.95212006 22.05786333 -3.625 25.9375 C-5.41224487 26.5396936 -5.41224487 26.5396936 -7.2355957 27.15405273 C-8.34636475 27.52473877 -9.45713379 27.8954248 -10.6015625 28.27734375 C-11.59494629 28.60984131 -12.58833008 28.94233887 -13.61181641 29.28491211 C-16 30 -16 30 -18 30 C-18 29.34 -18 28.68 -18 28 C-17.443125 27.82984375 -16.88625 27.6596875 -16.3125 27.484375 C-15.549375 27.24203125 -14.78625 26.9996875 -14 26.75 C-13.2575 26.51796875 -12.515 26.2859375 -11.75 26.046875 C-8.05041941 24.63851194 -4.54066469 22.77033234 -1 21 C-0.67 14.07 -0.34 7.14 0 0 Z " fill="#2D2D2C" transform="translate(30,60)"/>
<path d="M0 0 C1.55393275 0.23311425 3.10796883 0.46554077 4.66210938 0.69726562 C6.14853131 0.92125331 7.63486303 1.14584077 9.12109375 1.37109375 C10.15392738 1.52740517 10.15392738 1.52740517 11.20762634 1.68687439 C14.36897367 2.17722103 17.47763351 2.70725548 20.5625 3.5625 C20.5625 4.5525 20.5625 5.5425 20.5625 6.5625 C13.02896706 6.78051221 5.82955526 6.55547472 -1.625 5.5625 C-10.6590933 4.39362823 -19.60988983 4.45047627 -28.70703125 4.53125 C-36.67677027 4.59493513 -44.5029722 4.38381896 -52.4375 3.5625 C-50.4375 0.5625 -50.4375 0.5625 -48.36547852 -0.0534668 C-47.52428467 -0.16343994 -46.68309082 -0.27341309 -45.81640625 -0.38671875 C-44.87990234 -0.51240234 -43.94339844 -0.63808594 -42.97851562 -0.76757812 C-41.50415039 -0.94450195 -41.50415039 -0.94450195 -40 -1.125 C-38.5778418 -1.31932617 -38.5778418 -1.31932617 -37.12695312 -1.51757812 C-24.34183654 -3.16026136 -12.64125747 -1.95688007 0 0 Z " fill="#2D2C27" transform="translate(99.4375,90.4375)"/>
<path d="M0 0 C1.96044934 -0.00067579 3.9208986 -0.00164809 5.88134766 -0.00289917 C9.96582853 -0.00436322 14.05028734 -0.00226353 18.13476562 0.00244141 C23.3287227 0.00813787 28.52262807 0.00485189 33.71658325 -0.00113106 C37.75757221 -0.00477179 41.79854923 -0.00358207 45.83953857 -0.00100327 C47.75299079 -0.00034368 49.66644414 -0.00112789 51.57989502 -0.00348282 C62.55875923 -0.01403475 73.4304201 0.21619087 84.375 1.1328125 C84.375 1.7928125 84.375 2.4528125 84.375 3.1328125 C70.94376462 3.15607485 57.51253411 3.173798 44.08128262 3.18462467 C37.843325 3.18982327 31.60538127 3.19686546 25.36743164 3.20825195 C19.33737618 3.21918895 13.30733399 3.22511206 7.27726936 3.22768974 C4.98701837 3.22952463 2.69676803 3.23310734 0.40652275 3.23854256 C-11.64765156 3.26598849 -23.61112884 3.20073739 -35.625 2.1328125 C-35.625 1.8028125 -35.625 1.4728125 -35.625 1.1328125 C-23.7373672 0.13720906 -11.92343509 -0.01467445 0 0 Z " fill="#1F2220" transform="translate(46.625,99.8671875)"/>
<path d="M0 0 C6.13417174 1.99198877 12.18058787 4.15228514 18.19921875 6.46875 C19.03789993 6.79033081 19.87658112 7.11191162 20.74067688 7.4432373 C22.49816339 8.11787832 24.25525471 8.79354969 26.01196289 9.47021484 C28.68951222 10.50077448 31.36908701 11.5259365 34.04882812 12.55078125 C35.76575027 13.21061164 37.48255139 13.87075704 39.19921875 14.53125 C39.99309494 14.83446167 40.78697113 15.13767334 41.60490417 15.45007324 C45.86133592 17.09530585 49.95079517 18.87916088 54 21 C50.17969012 22.27343663 47.61012047 21.33804084 43.8671875 20.3046875 C43.16170776 20.11677139 42.45622803 19.92885529 41.72937012 19.73524475 C39.44224601 19.12349648 37.15864987 18.4995806 34.875 17.875 C33.31996171 17.45595104 31.76478589 17.03741209 30.20947266 16.61938477 C20.09749601 13.89121572 10.01008384 11.08360168 0 8 C0 5.36 0 2.72 0 0 Z " fill="#EDDCA5" transform="translate(77,68)"/>
<path d="M0 0 C5.31924846 0.67884746 10.46474986 1.72125549 15.6796875 2.9609375 C16.49188751 3.15217194 17.30408752 3.34340637 18.14089966 3.54043579 C19.85065062 3.94401327 21.56002685 4.34918132 23.26904297 4.75585938 C25.85912273 5.37122777 28.45092975 5.97888187 31.04296875 6.5859375 C32.71365232 6.98130356 34.38422884 7.37712227 36.0546875 7.7734375 C37.1988765 8.04080215 37.1988765 8.04080215 38.36618042 8.31356812 C43.68511009 9.58815603 48.83731283 11.19624528 54 13 C54 13.33 54 13.66 54 14 C42.03404009 13.48132688 30.37801596 11.83090724 18.5625 9.9375 C16.75204815 9.65239075 14.94150164 9.36788185 13.13085938 9.08398438 C8.75278753 8.39621835 4.37606552 7.70041344 0 7 C0 4.69 0 2.38 0 0 Z " fill="#F0DDA3" transform="translate(77,81)"/>
<path d="M0 0 C0 6.93 0 13.86 0 21 C-8 25 -8 25 -11 25 C-12.375 8.95833333 -12.375 8.95833333 -9.06640625 4.24609375 C-3.52609603 0 -3.52609603 0 0 0 Z " fill="#F3DFA5" transform="translate(30,60)"/>
<path d="M0 0 C9.34967818 -0.36917071 18.51423188 0.63583644 27.79052734 1.65405273 C30.3896597 1.93910778 32.98961728 2.21535608 35.58984375 2.49023438 C37.25526286 2.66876287 38.9206295 2.84778174 40.5859375 3.02734375 C41.35682709 3.10967758 42.12771667 3.19201141 42.92196655 3.27684021 C46.65880161 3.68927246 50.32883429 4.18322692 54 5 C54 5.33 54 5.66 54 6 C36.18 6 18.36 6 0 6 C0 4.02 0 2.04 0 0 Z " fill="#F0DFA7" transform="translate(77,94)"/>
<path d="M0 0 C16.5 0 33 0 50 0 C50 0.33 50 0.66 50 1 C45.1305569 1.58004454 40.25999277 2.14915952 35.38818359 2.70898438 C33.73745884 2.90013105 32.08705286 3.09405498 30.43701172 3.29101562 C20.22859162 4.50733802 10.29640176 5.30178747 0 5 C0 3.35 0 1.7 0 0 Z " fill="#F1E1AA" transform="translate(77,104)"/>
<path d="M0 0 C0.69738281 0.38800781 1.39476562 0.77601562 2.11328125 1.17578125 C3.6875 2.6875 3.6875 2.6875 3.91796875 5.35546875 C3.84191406 6.12503906 3.76585937 6.89460938 3.6875 7.6875 C3.01203125 7.33816406 2.3365625 6.98882812 1.640625 6.62890625 C0.74859375 6.17386719 -0.1434375 5.71882813 -1.0625 5.25 C-1.94421875 4.79753906 -2.8259375 4.34507813 -3.734375 3.87890625 C-7.5801837 2.10167647 -10.11556557 1.37766711 -14.24609375 2.5 C-14.97763672 2.68820313 -15.70917969 2.87640625 -16.46289062 3.0703125 C-17.98398943 3.48078835 -19.50482467 3.89224214 -21.02539062 4.3046875 C-25.13323254 5.35964778 -28.13840434 6.01524415 -32.3125 4.6875 C-30.91946793 1.90143585 -29.49958884 1.86657485 -26.578125 0.890625 C-24.57567402 0.23115114 -22.57030008 -0.41949567 -20.5625 -1.0625 C-19.55960938 -1.40410156 -18.55671875 -1.74570312 -17.5234375 -2.09765625 C-16.55148438 -2.41089844 -15.57953125 -2.72414063 -14.578125 -3.046875 C-13.68899414 -3.33788086 -12.79986328 -3.62888672 -11.88378906 -3.92871094 C-7.3977524 -4.59829408 -3.80243767 -2.19839617 0 0 Z " fill="#2E2D27" transform="translate(67.3125,34.3125)"/>
<path d="M0 0 C-0.66 0.99 -1.32 1.98 -2 3 C-3.2065625 2.7525 -3.2065625 2.7525 -4.4375 2.5 C-12.20219352 1.41021845 -19.27627331 2.22196057 -26.984375 3.5625 C-29.71309557 3.95837656 -32.24919316 4.08150539 -35 4 C-35 2.68 -35 1.36 -35 0 C-32.62524166 -0.48039005 -30.25020845 -0.95934474 -27.875 -1.4375 C-26.87726562 -1.63956055 -26.87726562 -1.63956055 -25.859375 -1.84570312 C-15.97901894 -3.83146096 -9.24456502 -4.33928562 0 0 Z " fill="#C09639" transform="translate(70,49)"/>
<path d="M0 0 C3.08534545 1.39768469 4.99134428 3.57488418 7.328125 6.00390625 C8.22015625 6.92300781 9.1121875 7.84210937 10.03125 8.7890625 C10.70671875 9.49933594 11.3821875 10.20960937 12.078125 10.94140625 C11.748125 11.60140625 11.418125 12.26140625 11.078125 12.94140625 C10.09972656 12.16603516 10.09972656 12.16603516 9.1015625 11.375 C7.79058594 10.38693359 7.79058594 10.38693359 6.453125 9.37890625 C5.59460938 8.71761719 4.73609375 8.05632813 3.8515625 7.375 C0.2829599 5.53038429 -1.08820141 5.84741821 -4.921875 6.94140625 C-7.6832922 7.88556728 -10.39742946 8.9266265 -13.109375 10.00390625 C-20.52370566 12.94140625 -20.52370566 12.94140625 -23.921875 12.94140625 C-23.24752567 10.58637091 -22.44171078 9.25127785 -20.32128906 7.98730469 C-18.25039318 7.03620358 -16.1627362 6.16275073 -14.046875 5.31640625 C-12.61168376 4.72076337 -11.17677898 4.12442971 -9.7421875 3.52734375 C-9.06961914 3.2550293 -8.39705078 2.98271484 -7.70410156 2.70214844 C-5.8058379 1.93046128 -5.8058379 1.93046128 -3.6640625 0.66796875 C-1.921875 -0.05859375 -1.921875 -0.05859375 0 0 Z " fill="#BC943C" transform="translate(58.921875,16.05859375)"/>
<path d="M0 0 C3.88497644 1.29499215 5.1145437 3.21784589 7.6875 6.375 C8.89986328 7.84066406 8.89986328 7.84066406 10.13671875 9.3359375 C12 12 12 12 12 15 C8.7 12.03 5.4 9.06 2 6 C-4.63536936 7.97896981 -10.73127937 10.64550134 -16.94555664 13.66235352 C-21.80172774 16 -21.80172774 16 -24 16 C-24 15.01 -24 14.02 -24 13 C-22.85402344 12.39671875 -21.70804688 11.7934375 -20.52734375 11.171875 C-18.99736286 10.36464582 -17.4674168 9.55735064 -15.9375 8.75 C-15.18533203 8.35425781 -14.43316406 7.95851563 -13.65820312 7.55078125 C-12.91376953 7.15761719 -12.16933594 6.76445312 -11.40234375 6.359375 C-10.66226074 5.96943359 -9.92217773 5.57949219 -9.15966797 5.17773438 C-7.10700373 4.05835247 -5.12317447 2.85995658 -3.12890625 1.640625 C-2.09636719 1.09921875 -1.06382813 0.5578125 0 0 Z " fill="#C5993E" transform="translate(58,6)"/>
<path d="M0 0 C0 1.32 0 2.64 0 4 C-0.67804688 3.98839844 -1.35609375 3.97679687 -2.0546875 3.96484375 C-7.62779644 3.91081084 -13.02738853 4.14754741 -18.5625 4.77734375 C-22.38423042 5.12644413 -26.16473075 5.06185918 -30 5 C-30 3.68 -30 2.36 -30 1 C-8.82089552 -2.94029851 -8.82089552 -2.94029851 0 0 Z " fill="#B7913C" transform="translate(65,56)"/>
<path d="M0 0 C10.89 0 21.78 0 33 0 C33 1.32 33 2.64 33 4 C28.78248718 4.04946113 24.56512832 4.08574827 20.34741211 4.10986328 C18.91281188 4.119917 17.47823211 4.13356194 16.04370117 4.15087891 C13.98090562 4.17515549 11.91838115 4.18648919 9.85546875 4.1953125 C8.61434326 4.20578613 7.37321777 4.21625977 6.09448242 4.22705078 C3 4 3 4 0 2 C0 1.34 0 0.68 0 0 Z " fill="#1A1F22" transform="translate(116,0)"/>
<path d="M0 0 C2.5546875 1.453125 2.5546875 1.453125 4.875 3.25 C5.65617187 3.83265625 6.43734375 4.4153125 7.2421875 5.015625 C9 7 9 7 9.2578125 9.734375 C9.17273438 10.48203125 9.08765625 11.2296875 9 12 C5.92364821 10.64826967 4.12641439 9.14821673 1.875 6.6875 C0.13525951 4.99017277 0.13525951 4.99017277 -2 4 C-4.78304547 4.34788068 -6.99501476 5.13205901 -9.5703125 6.23046875 C-12.47513491 7.15048485 -14.12460407 6.94022462 -17 6 C-17.33 5.34 -17.66 4.68 -18 4 C-16.13360019 3.12720138 -14.25639389 2.27748973 -12.375 1.4375 C-11.33085938 0.96183594 -10.28671875 0.48617188 -9.2109375 -0.00390625 C-5.54348812 -1.14161865 -3.66237817 -1.07803873 0 0 Z " fill="#292A26" transform="translate(62,22)"/>
<path d="M0 0 C2 0 2 0 3.5078125 1.43359375 C7.11544115 5.90391621 8.9337115 9.24243325 8.53125 15.078125 C8 17 8 17 5.6875 19.0625 C3 20 3 20 0 20 C0 13.4 0 6.8 0 0 Z " fill="#F7E2A2" transform="translate(88,19)"/>
<path d="M0 0 C0 1.98 0 3.96 0 6 C-10.56 6 -21.12 6 -32 6 C-32 5.67 -32 5.34 -32 5 C-24.74 4.67 -17.48 4.34 -10 4 C-10 3.34 -10 2.68 -10 2 C-14.455 2.495 -14.455 2.495 -19 3 C-19 3.33 -19 3.66 -19 4 C-25.27 3.67 -31.54 3.34 -38 3 C-38 2.67 -38 2.34 -38 2 C-33.91729158 1.65871535 -29.8337573 1.32847613 -25.75 1 C-24.04070313 0.85691406 -24.04070313 0.85691406 -22.296875 0.7109375 C-14.84607859 0.11826051 -7.47345704 -0.12268329 0 0 Z " fill="#AF8B40" transform="translate(77,94)"/>
<path d="M0 0 C0 0.33 0 0.66 0 1 C3.3 1.33 6.6 1.66 10 2 C10 2.33 10 2.66 10 3 C5.48394714 3.4332461 0.96735847 3.8602256 -3.54980469 4.28173828 C-5.08218853 4.42558028 -6.61442065 4.57104923 -8.14648438 4.71826172 C-31.55362874 6.9642475 -31.55362874 6.9642475 -36 4 C-31.99899678 3.42410672 -27.99712849 2.85468783 -23.99438477 2.29101562 C-22.63541375 2.0987434 -21.276683 1.90476437 -19.91821289 1.70898438 C-17.95524539 1.42639779 -15.99129834 1.15064275 -14.02734375 0.875 C-12.25991821 0.62363281 -12.25991821 0.62363281 -10.45678711 0.3671875 C-6.94385604 -0.00596373 -3.52987232 -0.06306863 0 0 Z " fill="#27251E" transform="translate(51,92)"/>
<path d="M0 0 C1.32 0.33 2.64 0.66 4 1 C4.35955056 6.39325843 4.35955056 6.39325843 3 8.6875 C-0.16973279 10.76763714 -3.53253394 10.31199229 -7.1875 10.1875 C-8.31188477 10.16719727 -8.31188477 10.16719727 -9.45898438 10.14648438 C-11.30629767 10.11118539 -13.15324066 10.05737917 -15 10 C-15 9.67 -15 9.34 -15 9 C-11.7 8.67 -8.4 8.34 -5 8 C-8.63 7.67 -12.26 7.34 -16 7 C-16 6.67 -16 6.34 -16 6 C-14.35 6 -12.7 6 -11 6 C-11 5.01 -11 4.02 -11 3 C-7.7 3 -4.4 3 -1 3 C-0.67 2.01 -0.34 1.02 0 0 Z " fill="#47443A" transform="translate(131,91)"/>
<path d="M0 0 C2.58373234 0.30944701 5.16695133 0.62243957 7.75 0.9375 C8.47960937 1.02451172 9.20921875 1.11152344 9.9609375 1.20117188 C13.37584442 1.62027409 16.67603543 2.117274 20 3 C20 3.99 20 4.98 20 6 C11.59784035 6.11039334 3.35263176 5.95458649 -5 5 C-4.360625 4.54625 -3.72125 4.0925 -3.0625 3.625 C-0.90297594 2.16078274 -0.90297594 2.16078274 0 0 Z " fill="#3A3830" transform="translate(100,91)"/>
<path d="M0 0 C4.62 0 9.24 0 14 0 C14 1.65 14 3.3 14 5 C16.64 5 19.28 5 22 5 C22 5.33 22 5.66 22 6 C10.19752867 6.32188558 -1.28000331 5.33262907 -13 4 C-13 3.67 -13 3.34 -13 3 C-8.38 2.67 -3.76 2.34 1 2 C0.67 1.34 0.34 0.68 0 0 Z " fill="#B48E45" transform="translate(63,104)"/>
<path d="M0 0 C0.33 0 0.66 0 1 0 C1.33 5.94 1.66 11.88 2 18 C3.32 18.66 4.64 19.32 6 20 C5.67 20.99 5.34 21.98 5 23 C2.99047852 23.9831543 2.99047852 23.9831543 0.37890625 24.82421875 C-0.55630859 25.13037109 -1.49152344 25.43652344 -2.45507812 25.75195312 C-3.93137695 26.21504883 -3.93137695 26.21504883 -5.4375 26.6875 C-6.41783203 27.00783203 -7.39816406 27.32816406 -8.40820312 27.65820312 C-15.66327958 30 -15.66327958 30 -18 30 C-18 29.34 -18 28.68 -18 28 C-17.443125 27.82984375 -16.88625 27.6596875 -16.3125 27.484375 C-15.549375 27.24203125 -14.78625 26.9996875 -14 26.75 C-13.2575 26.51796875 -12.515 26.2859375 -11.75 26.046875 C-8.05041941 24.63851194 -4.54066469 22.77033234 -1 21 C-0.67 14.07 -0.34 7.14 0 0 Z " fill="#252422" transform="translate(30,60)"/>
<path d="M0 0 C-0.33 0.33 -0.66 0.66 -1 1 C-0.34 1.66 0.32 2.32 1 3 C-6.92 4.98 -14.84 6.96 -23 9 C-22 6 -22 6 -20.08227539 5.00097656 C-19.26235107 4.71706055 -18.44242676 4.43314453 -17.59765625 4.140625 C-16.70755859 3.82996094 -15.81746094 3.51929687 -14.90039062 3.19921875 C-13.96388672 2.88597656 -13.02738281 2.57273437 -12.0625 2.25 C-10.66354492 1.75693359 -10.66354492 1.75693359 -9.23632812 1.25390625 C-2.26844032 -1.13422016 -2.26844032 -1.13422016 0 0 Z " fill="#B89343" transform="translate(34,84)"/>
<path d="M0 0 C0.33 0.99 0.66 1.98 1 3 C3.64 3 6.28 3 9 3 C9 3.33 9 3.66 9 4 C11.64 4.33 14.28 4.66 17 5 C17 5.99 17 6.98 17 8 C14.36 8.33 11.72 8.66 9 9 C9 9.33 9 9.66 9 10 C2.9453125 10.1953125 2.9453125 10.1953125 1 10 C0.34 9.34 -0.32 8.68 -1 8 C-0.67 7.34 -0.34 6.68 0 6 C-0.66 5.67 -1.32 5.34 -2 5 C-1.34 5 -0.68 5 0 5 C-0.33 4.01 -0.66 3.02 -1 2 C-0.67 1.34 -0.34 0.68 0 0 Z " fill="#5B4A25" transform="translate(9,95)"/>
<path d="M0 0 C-3.41600147 0.50461625 -6.8328994 1.00288576 -10.25 1.5 C-11.21808594 1.64308594 -12.18617187 1.78617187 -13.18359375 1.93359375 C-14.11816406 2.06894531 -15.05273438 2.20429687 -16.015625 2.34375 C-16.87446289 2.46943359 -17.73330078 2.59511719 -18.61816406 2.72460938 C-21 3 -21 3 -25 3 C-25 2.34 -25 1.68 -25 1 C-22.46163847 0.29757929 -19.92055937 -0.38710202 -17.375 -1.0625 C-16.66214844 -1.26166016 -15.94929688 -1.46082031 -15.21484375 -1.66601562 C-9.39876513 -3.18673343 -5.21326699 -3.47551133 0 0 Z " fill="#BF973D" transform="translate(36,94)"/>
<path d="M0 0 C0.66 0.99 1.32 1.98 2 3 C1.67 3.66 1.34 4.32 1 5 C1.99 5 2.98 5 4 5 C4 5.66 4 6.32 4 7 C0.7 7.66 -2.6 8.32 -6 9 C-6 8.34 -6 7.68 -6 7 C-7.65 7.33 -9.3 7.66 -11 8 C-11.33 7.01 -11.66 6.02 -12 5 C-12.66 4.67 -13.32 4.34 -14 4 C-12.1746875 4.0309375 -12.1746875 4.0309375 -10.3125 4.0625 C-7.08022678 4.06824116 -4.15065259 3.78766315 -1 3 C-0.67 2.01 -0.34 1.02 0 0 Z " fill="#282B25" transform="translate(66,64)"/>
<path d="M0 0 C0 0.33 0 0.66 0 1 C2.31 1.33 4.62 1.66 7 2 C7 2.33 7 2.66 7 3 C-4.22 3 -15.44 3 -27 3 C-27 2.67 -27 2.34 -27 2 C-17.96301675 0.8258212 -9.13338455 -0.28994872 0 0 Z " fill="#C1994D" transform="translate(38,97)"/>
<path d="M0 0 C2.41734542 -0.08117951 4.83194949 -0.14056926 7.25 -0.1875 C7.93191406 -0.21263672 8.61382812 -0.23777344 9.31640625 -0.26367188 C12.59199289 -0.31137459 14.65348556 -0.21085076 17.484375 1.51171875 C17.98453125 2.00285156 18.4846875 2.49398437 19 3 C12.62694402 3.74507544 6.41688675 4.10349817 0 4 C0 2.68 0 1.36 0 0 Z " fill="#B69245" transform="translate(35,57)"/>
<path d="M0 0 C1.7421875 1.39453125 1.7421875 1.39453125 3 3 C3 3.66 3 4.32 3 5 C-0.3 5 -3.6 5 -7 5 C-5.68 4.67 -4.36 4.34 -3 4 C-3.33 3.34 -3.66 2.68 -4 2 C-4.71285156 2.15597656 -5.42570312 2.31195313 -6.16015625 2.47265625 C-11.81616649 3.62212805 -16.34868396 4.25584801 -22 3 C-22 2.67 -22 2.34 -22 2 C-7.12643678 -0.57471264 -7.12643678 -0.57471264 0 0 Z " fill="#2C2920" transform="translate(62,50)"/>
<path d="M0 0 C10.72655709 -0.10194194 21.31563078 -0.07419152 32 1 C32 1.33 32 1.66 32 2 C24.42187777 2.6630857 16.85585411 3.13202599 9.25 3.25 C8.21359375 3.2819043 8.21359375 3.2819043 7.15625 3.31445312 C5.203125 3.328125 5.203125 3.328125 2 3 C1.34 2.01 0.68 1.02 0 0 Z " fill="#CE9B32" transform="translate(44,104)"/>
<path d="M0 0 C2.00753698 1.09040327 4.00588751 2.19773572 6 3.3125 C7.11375 3.92738281 8.2275 4.54226562 9.375 5.17578125 C10.24125 5.77777344 11.1075 6.37976562 12 7 C12 7.99 12 8.98 12 10 C7.76570244 8.68938409 3.92592596 7.05643741 0 5 C0 3.35 0 1.7 0 0 Z " fill="#EADBA2" transform="translate(59,35)"/>
<path d="M0 0 C-3.0296652 2.44814179 -6.07549599 4.09452853 -9.625 5.6875 C-10.58664063 6.12449219 -11.54828125 6.56148437 -12.5390625 7.01171875 C-15 8 -15 8 -17 8 C-17 7.01 -17 6.02 -17 5 C-15.30397484 3.95884577 -13.59251063 2.94281622 -11.875 1.9375 C-10.92367187 1.36902344 -9.97234375 0.80054688 -8.9921875 0.21484375 C-5.49004362 -1.20704495 -3.60760132 -0.93669174 0 0 Z " fill="#B69140" transform="translate(51,14)"/>
<path d="M0 0 C3.23861303 1.44424635 5.61969163 3.25772247 8.25 5.625 C8.95640625 6.25664063 9.6628125 6.88828125 10.390625 7.5390625 C10.92171875 8.02117188 11.4528125 8.50328125 12 9 C11.67 9.66 11.34 10.32 11 11 C9.34304393 10.12491068 7.6996656 9.22407748 6.0625 8.3125 C5.14597656 7.81363281 4.22945312 7.31476562 3.28515625 6.80078125 C1 5 1 5 0.18359375 2.29296875 C0.12300781 1.53628906 0.06242187 0.77960937 0 0 Z " fill="#EEDEA8" transform="translate(59,26)"/>
<path d="M0 0 C5.28 0 10.56 0 16 0 C16 0.66 16 1.32 16 2 C11.67244613 4.51277322 8.6146047 3.79167169 3.98828125 2.703125 C2 2 2 2 0 0 Z " fill="#BC9039" transform="translate(49,65)"/>
<path d="M0 0 C1.46067199 0.45082469 2.91848032 0.91093537 4.375 1.375 C5.18710938 1.63023438 5.99921875 1.88546875 6.8359375 2.1484375 C9 3 9 3 11 5 C10.34 5.66 9.68 6.32 9 7 C5.19090105 6.67582137 3.21627837 6.14418558 0 4 C0 2.68 0 1.36 0 0 Z " fill="#DFD39C" transform="translate(59,45)"/>
<path d="M0 0 C4.18423892 3.50897269 8.19588166 7.08060535 12 11 C11.67 11.66 11.34 12.32 11 13 C9.33971243 11.98152958 7.69711885 10.93417799 6.0625 9.875 C5.14597656 9.29492188 4.22945312 8.71484375 3.28515625 8.1171875 C0.45317117 5.49336543 0.25155027 3.77860623 0 0 Z " fill="#EEDDA8" transform="translate(59,16)"/>
<path d="M0 0 C0 1.32 0 2.64 0 4 C-3.3 4 -6.6 4 -10 4 C-10 3.34 -10 2.68 -10 2 C-11.98 2 -13.96 2 -16 2 C-16 1.67 -16 1.34 -16 1 C-10.65097076 0.40801257 -5.39115154 -0.14187241 0 0 Z " fill="#363026" transform="translate(60,59)"/>
<path d="M0 0 C0.33 0.66 0.66 1.32 1 2 C-0.24663331 2.50833591 -1.49749387 3.00631145 -2.75 3.5 C-3.44609375 3.7784375 -4.1421875 4.056875 -4.859375 4.34375 C-7 5 -7 5 -11 5 C-11 3.68 -11 2.36 -11 1 C-7.26562152 0.12132271 -3.83225427 -0.08912219 0 0 Z " fill="#BE963E" transform="translate(46,40)"/>
<path d="M0 0 C1.875 2.0625 1.875 2.0625 3 4 C-0.01031744 4.93423645 -0.86650268 5.04449911 -4 4 C-5.33106622 3.65772583 -6.66400079 3.32248257 -8 3 C-8 2.01 -8 1.02 -8 0 C-5.03475663 -1.48262169 -3.14877613 -0.83538959 0 0 Z " fill="#25261F" transform="translate(62,22)"/>
<path d="M0 0 C0.66 0 1.32 0 2 0 C3.60861731 1.71024476 5.13938343 3.49438829 6.625 5.3125 C7.44226563 6.29863281 8.25953125 7.28476563 9.1015625 8.30078125 C11 11 11 11 11 14 C9.15396505 12.42967157 7.3240653 10.84549692 5.5 9.25 C4.97535156 8.8065625 4.45070313 8.363125 3.91015625 7.90625 C2.40625 6.578125 2.40625 6.578125 0 4 C0 2.68 0 1.36 0 0 Z " fill="#E0D7AB" transform="translate(59,7)"/>
<path d="M0 0 C2.59426798 -0.27668225 4.91263646 -0.37295242 7.5 -0.3125 C8.18964844 -0.31572266 8.87929688 -0.31894531 9.58984375 -0.32226562 C14.73287408 -0.26712592 14.73287408 -0.26712592 17 2 C12.84373632 3.00926479 8.95634906 3.10239579 4.6875 3.0625 C3.43324219 3.05347656 2.17898437 3.04445313 0.88671875 3.03515625 C-0.06589844 3.02355469 -1.01851562 3.01195313 -2 3 C-1.34 2.01 -0.68 1.02 0 0 Z " fill="#2F322F" transform="translate(49,91)"/>
<path d="M0 0 C0 2.31 0 4.62 0 7 C-0.99 6.67 -1.98 6.34 -3 6 C-2.67 4.68 -2.34 3.36 -2 2 C-3.65 2 -5.3 2 -7 2 C-7 2.99 -7 3.98 -7 5 C-7.66 5 -8.32 5 -9 5 C-9 4.34 -9 3.68 -9 3 C-11.64 3.33 -14.28 3.66 -17 4 C-12.0251208 0.68341387 -5.96431647 -0.38479461 0 0 Z " fill="#B38C40" transform="translate(77,81)"/>
<path d="M0 0 C0.33 0 0.66 0 1 0 C1 1.65 1 3.3 1 5 C2.65 5 4.3 5 6 5 C5.34 5.66 4.68 6.32 4 7 C3.01 7 2.02 7 1 7 C1 7.66 1 8.32 1 9 C3.31 9 5.62 9 8 9 C8 9.33 8 9.66 8 10 C2.71974352 10.43280791 2.71974352 10.43280791 0 10 C-2.125 7.75 -2.125 7.75 -3 5 C-2.28541109 2.85623326 -1.58775583 1.58775583 0 0 Z " fill="#22272A" transform="translate(10,88)"/>
<path d="M0 0 C1.65 0 3.3 0 5 0 C5.33 1.32 5.66 2.64 6 4 C-2.57142857 5.42857143 -2.57142857 5.42857143 -6 3 C-6 2.34 -6 1.68 -6 1 C-4.68 1 -3.36 1 -2 1 C-2 1.66 -2 2.32 -2 3 C-1.34 3 -0.68 3 0 3 C0 2.01 0 1.02 0 0 Z " fill="#CA9634" transform="translate(70,83)"/>
<path d="M0 0 C0.144375 0.639375 0.28875 1.27875 0.4375 1.9375 C0.81007181 3.97545146 0.81007181 3.97545146 2 5 C2.125 8 2.125 8 2 11 C1.67 11.33 1.34 11.66 1 12 C0.63239269 14.32817964 0.29758419 16.6618385 0 19 C-0.33 19 -0.66 19 -1 19 C-1.02683987 16.02077407 -1.04676037 13.04178705 -1.0625 10.0625 C-1.07087891 9.21236328 -1.07925781 8.36222656 -1.08789062 7.48632812 C-1.09111328 6.67744141 -1.09433594 5.86855469 -1.09765625 5.03515625 C-1.10289307 4.2862915 -1.10812988 3.53742676 -1.11352539 2.76586914 C-1 1 -1 1 0 0 Z " fill="#CB9B3F" transform="translate(73,26)"/>
<path d="M0 0 C1.32 0 2.64 0 4 0 C4 1.65 4 3.3 4 5 C1.03 5 -1.94 5 -5 5 C-5.33 4.34 -5.66 3.68 -6 3 C-4.02 2.67 -2.04 2.34 0 2 C0 1.34 0 0.68 0 0 Z " fill="#F7E3AB" transform="translate(87,84)"/>
<path d="M0 0 C1.8141927 0.28094582 3.62635001 0.57506433 5.4375 0.875 C6.95150391 1.11863281 6.95150391 1.11863281 8.49609375 1.3671875 C9.32238281 1.57601562 10.14867187 1.78484375 11 2 C11.33 2.66 11.66 3.32 12 4 C7.05 3.67 2.1 3.34 -3 3 C-2.01 2.67 -1.02 2.34 0 2 C0 1.34 0 0.68 0 0 Z " fill="#E2D6A2" transform="translate(119,91)"/>
<path d="M0 0 C-0.99 1.485 -0.99 1.485 -2 3 C-5.5 3.3125 -5.5 3.3125 -9 3 C-9.66 2.34 -10.32 1.68 -11 1 C-3.57142857 -1.42857143 -3.57142857 -1.42857143 0 0 Z " fill="#C8983F" transform="translate(42,90)"/>
<path d="M0 0 C0.33 0.66 0.66 1.32 1 2 C-0.95689659 2.22142255 -2.91561952 2.4267568 -4.875 2.625 C-6.51082031 2.79902344 -6.51082031 2.79902344 -8.1796875 2.9765625 C-9.57574219 2.98816406 -9.57574219 2.98816406 -11 3 C-11.66 2.34 -12.32 1.68 -13 1 C-11.58622218 0.63447197 -10.16879424 0.28304505 -8.75 -0.0625 C-7.96109375 -0.25972656 -7.1721875 -0.45695312 -6.359375 -0.66015625 C-3.86185292 -1.01989867 -2.34449197 -0.9077126 0 0 Z " fill="#C69746" transform="translate(56,87)"/>
<path d="M0 0 C1.65 0 3.3 0 5 0 C4.67 0.66 4.34 1.32 4 2 C4.66 2.66 5.32 3.32 6 4 C-0.27 4 -6.54 4 -13 4 C-13 3.67 -13 3.34 -13 3 C-6.565 2.505 -6.565 2.505 0 2 C0 1.34 0 0.68 0 0 Z " fill="#1E1B19" transform="translate(59,60)"/>
<path d="M0 0 C2.64 0 5.28 0 8 0 C7.67 1.32 7.34 2.64 7 4 C4.69 4 2.38 4 0 4 C0 2.68 0 1.36 0 0 Z " fill="#FCEAA7" transform="translate(77,105)"/>
<path d="M0 0 C0.99 0.33 1.98 0.66 3 1 C0.74517555 3.68844453 -0.66704294 4.89807437 -4.0625 5.9375 C-7 6 -7 6 -8.875 4.5625 C-9.431875 3.7890625 -9.431875 3.7890625 -10 3 C-7.36 3.33 -4.72 3.66 -2 4 C-2 3.01 -2 2.02 -2 1 C-1.34 0.67 -0.68 0.34 0 0 Z " fill="#CA9A33" transform="translate(53,77)"/>
<path d="M0 0 C1.95803507 -0.05389087 3.91648909 -0.09274217 5.875 -0.125 C7.51082031 -0.15980469 7.51082031 -0.15980469 9.1796875 -0.1953125 C12 0 12 0 14 2 C13.43152344 1.98839844 12.86304688 1.97679687 12.27734375 1.96484375 C7.39329516 1.90776806 2.81496035 2.18043228 -2 3 C-1.34 2.67 -0.68 2.34 0 2 C0 1.34 0 0.68 0 0 Z " fill="#CB9728" transform="translate(38,57)"/>
<path d="M0 0 C2.31 0.33 4.62 0.66 7 1 C7.12375 1.61875 7.2475 2.2375 7.375 2.875 C7.87197356 5.19120832 7.87197356 5.19120832 10 7 C4.06 6.01 4.06 6.01 -2 5 C-2 4.67 -2 4.34 -2 4 C-0.02 4 1.96 4 4 4 C3.04134491 1.66924071 3.04134491 1.66924071 0 0 Z " fill="#2A281D" transform="translate(56,40)"/>
<path d="M0 0 C0 0.66 0 1.32 0 2 C-1.32 2 -2.64 2 -4 2 C-4 2.66 -4 3.32 -4 4 C-10.25 7.125 -10.25 7.125 -15 6 C-15 5.67 -15 5.34 -15 5 C-13.35 4.67 -11.7 4.34 -10 4 C-10 3.34 -10 2.68 -10 2 C-8.7090864 1.66376204 -7.41723903 1.33110751 -6.125 1 C-5.40570313 0.814375 -4.68640625 0.62875 -3.9453125 0.4375 C-2 0 -2 0 0 0 Z " fill="#363326" transform="translate(68,78)"/>
<path d="M0 0 C-4.455 0.495 -4.455 0.495 -9 1 C-9 0.34 -9 -0.32 -9 -1 C-10.32 -1.33 -11.64 -1.66 -13 -2 C-8.14228642 -3.68151624 -4.2079058 -2.80527053 0 0 Z " fill="#AC853A" transform="translate(36,94)"/>
<path d="M0 0 C0.33 0.66 0.66 1.32 1 2 C-0.60379341 2.05416188 -2.20811406 2.09286638 -3.8125 2.125 C-4.70582031 2.14820312 -5.59914063 2.17140625 -6.51953125 2.1953125 C-9 2 -9 2 -12 0 C-7.69211856 -0.92311745 -4.29105809 -1.09771253 0 0 Z " fill="#383323" transform="translate(27,96)"/>
<path d="M0 0 C2.97 0.495 2.97 0.495 6 1 C6 2.32 6 3.64 6 5 C4.35 5 2.7 5 1 5 C0.67 3.35 0.34 1.7 0 0 Z " fill="#EDDCA3" transform="translate(59,55)"/>
<path d="M0 0 C0 0.66 0 1.32 0 2 C-1.45792884 2.05399736 -2.91642712 2.09279177 -4.375 2.125 C-5.18710938 2.14820312 -5.99921875 2.17140625 -6.8359375 2.1953125 C-9 2 -9 2 -11 0 C-7.18243176 -1.37432457 -3.92744671 -0.67975039 0 0 Z " fill="#F7E7B0" transform="translate(119,91)"/>
<path d="M0 0 C0 0.33 0 0.66 0 1 C-5.94 0.67 -11.88 0.34 -18 0 C-18 -0.33 -18 -0.66 -18 -1 C-5.33029613 -2.51708428 -5.33029613 -2.51708428 0 0 Z " fill="#A88543" transform="translate(68,108)"/>
<path d="M0 0 C-2.39763185 2.39763185 -3.33273498 2.34280586 -6.625 2.625 C-7.44226563 2.69976562 -8.25953125 2.77453125 -9.1015625 2.8515625 C-9.72804688 2.90054688 -10.35453125 2.94953125 -11 3 C-10.34 2.67 -9.68 2.34 -9 2 C-9 1.34 -9 0.68 -9 0 C-5.93109813 -1.53445094 -3.29905734 -0.54984289 0 0 Z " fill="#DDCF9A" transform="translate(114,89)"/>
<path d="M0 0 C1.98 0.495 1.98 0.495 4 1 C4 1.66 4 2.32 4 3 C4.66 3.33 5.32 3.66 6 4 C6 4.66 6 5.32 6 6 C3.0625 5.625 3.0625 5.625 0 5 C-0.33 4.34 -0.66 3.68 -1 3 C-0.67 2.01 -0.34 1.02 0 0 Z " fill="#EDDCA0" transform="translate(87,74)"/>
<path d="M0 0 C2.97 0.33 5.94 0.66 9 1 C9 1.33 9 1.66 9 2 C4.05 2.66 -0.9 3.32 -6 4 C-6 3.34 -6 2.68 -6 2 C-4.02 2 -2.04 2 0 2 C0 1.34 0 0.68 0 0 Z " fill="#B38F43" transform="translate(44,49)"/>
<path d="M0 0 C2.31 0 4.62 0 7 0 C7 0.99 7 1.98 7 3 C4.03 3 1.06 3 -2 3 C-1.34 2.67 -0.68 2.34 0 2 C0 1.34 0 0.68 0 0 Z " fill="#1C1C19" transform="translate(113,94)"/>
<path d="M0 0 C0 1.32 0 2.64 0 4 C-2.64 4 -5.28 4 -8 4 C-4.5 0 -4.5 0 0 0 Z " fill="#C89635" transform="translate(39,82)"/>
<path d="M0 0 C-0.99 0.495 -0.99 0.495 -2 1 C-2 1.66 -2 2.32 -2 3 C-4.64 3.33 -7.28 3.66 -10 4 C-9.67 3.01 -9.34 2.02 -9 1 C-6.04335481 -0.4783226 -3.25770263 -0.06032783 0 0 Z " fill="#C19631" transform="translate(55,20)"/>
<path d="M0 0 C0.66 0.33 1.32 0.66 2 1 C1.34 2.65 0.68 4.3 0 6 C-1.98 5.34 -3.96 4.68 -6 4 C-4.03617993 2.49440461 -2.21736634 1.10868317 0 0 Z " fill="#BB9139" transform="translate(58,6)"/>
<path d="M0 0 C2 0 2 0 3.9375 1.6875 C6.01869339 4.02095925 7.60188756 6.20377512 9 9 C8.67 9.66 8.34 10.32 8 11 C6.66072279 9.54712339 5.32873153 8.08752741 4 6.625 C3.2575 5.81289063 2.515 5.00078125 1.75 4.1640625 C0 2 0 2 0 0 Z " fill="#22251C" transform="translate(113,30)"/>
<path d="M0 0 C2.97 0.495 2.97 0.495 6 1 C6 1.99 6 2.98 6 4 C3.69 3.67 1.38 3.34 -1 3 C-0.67 2.01 -0.34 1.02 0 0 Z " fill="#27221E" transform="translate(120,88)"/>
<path d="M0 0 C0.99 0 1.98 0 3 0 C3.33 1.65 3.66 3.3 4 5 C1.03 5 -1.94 5 -5 5 C-4.01 4.34 -3.02 3.68 -2 3 C-1.34 2.34 -0.68 1.68 0 1 C0 0.67 0 0.34 0 0 Z " fill="#BA8F35" transform="translate(56,45)"/>
<path d="M0 0 C1.98 0 3.96 0 6 0 C6 1.32 6 2.64 6 4 C2.7 4 -0.6 4 -4 4 C-4 3.67 -4 3.34 -4 3 C-0.535 2.505 -0.535 2.505 3 2 C2.01 1.34 1.02 0.68 0 0 Z " fill="#1D1E16" transform="translate(94,91)"/>
<path d="M0 0 C0 0.66 0 1.32 0 2 C-3.375 2.625 -3.375 2.625 -7 3 C-7.66 2.34 -8.32 1.68 -9 1 C-5.64919071 -1.10976881 -3.77897651 -1.0497157 0 0 Z " fill="#F9E6AE" transform="translate(106,79)"/>
<path d="M0 0 C0.66 0.99 1.32 1.98 2 3 C1.67 3.66 1.34 4.32 1 5 C1.99 5.33 2.98 5.66 4 6 C0.625 6.125 0.625 6.125 -3 6 C-3.66 5.34 -4.32 4.68 -5 4 C-4.0409375 3.8453125 -4.0409375 3.8453125 -3.0625 3.6875 C-2.381875 3.460625 -1.70125 3.23375 -1 3 C-0.67 2.01 -0.34 1.02 0 0 Z " fill="#212727" transform="translate(66,64)"/>
<path d="M0 0 C0.66 1.32 1.32 2.64 2 4 C-1.3 3.67 -4.6 3.34 -8 3 C-5.36657694 0.36657694 -3.69534435 0 0 0 Z " fill="#352E22" transform="translate(54,23)"/>
<path d="M0 0 C2.66666667 1.33333333 5.33333333 2.66666667 8 4 C3.545 4.495 3.545 4.495 -1 5 C-0.67 3.35 -0.34 1.7 0 0 Z " fill="#AE883C" transform="translate(41,88)"/>
<path d="M0 0 C4.455 0.99 4.455 0.99 9 2 C5.1496895 4.56687367 3.41430237 3.83288724 -1 3 C-0.67 2.01 -0.34 1.02 0 0 Z " fill="#3D372C" transform="translate(46,83)"/>
<path d="M0 0 C2.475 0.99 2.475 0.99 5 2 C4.67 2.99 4.34 3.98 4 5 C2.68 4.67 1.36 4.34 0 4 C0 2.68 0 1.36 0 0 Z " fill="#F2DCA3" transform="translate(59,45)"/>
<path d="M0 0 C1.98 0 3.96 0 6 0 C6.33 0.66 6.66 1.32 7 2 C4.29120665 3.35439668 1.99066732 3.06501451 -1 3 C-0.67 2.01 -0.34 1.02 0 0 Z " fill="#CB9930" transform="translate(40,40)"/>
<path d="M0 0 C-0.33 1.32 -0.66 2.64 -1 4 C-2.98 4 -4.96 4 -7 4 C-7 3.34 -7 2.68 -7 2 C-4.35261084 0.5393715 -3.10551666 0 0 0 Z " fill="#252622" transform="translate(41,28)"/>
<path d="M0 0 C-3.94444444 2.62962963 -3.94444444 2.62962963 -7 3 C-9.25 2.0625 -9.25 2.0625 -11 1 C-7.2297564 -1.56376565 -4.32597804 -0.83191885 0 0 Z " fill="#BF9347" transform="translate(51,23)"/>
<path d="M0 0 C1.98 0.66 3.96 1.32 6 2 C6 2.66 6 3.32 6 4 C4.35 4 2.7 4 1 4 C0.67 2.68 0.34 1.36 0 0 Z " fill="#26241F" transform="translate(114,79)"/>
<path d="M0 0 C0 0.99 0 1.98 0 3 C1.32 3.33 2.64 3.66 4 4 C1.69 4.33 -0.62 4.66 -3 5 C-2.67 4.34 -2.34 3.68 -2 3 C-3.32 2.34 -4.64 1.68 -6 1 C-3.92446352 0.4465236 -2.15634036 0 0 0 Z " fill="#AC8940" transform="translate(48,38)"/>
<path d="M0 0 C2.475 0.495 2.475 0.495 5 1 C5 2.32 5 3.64 5 5 C2.525 4.01 2.525 4.01 0 3 C0 2.01 0 1.02 0 0 Z " fill="#27221D" transform="translate(62,34)"/>
<path d="M0 0 C0 0.33 0 0.66 0 1 C-3.3 1.33 -6.6 1.66 -10 2 C-10 1.34 -10 0.68 -10 0 C-6.30581799 -1.231394 -3.7943739 -0.64432764 0 0 Z " fill="#B08E4C" transform="translate(21,95)"/>
<path d="M0 0 C1.32 0 2.64 0 4 0 C4.33 1.65 4.66 3.3 5 5 C4.01 5 3.02 5 2 5 C2 4.34 2 3.68 2 3 C1.01 2.67 0.02 2.34 -1 2 C-0.67 1.34 -0.34 0.68 0 0 Z " fill="#FCE7AA" transform="translate(91,75)"/>
<path d="M0 0 C1.98 0 3.96 0 6 0 C6 0.66 6 1.32 6 2 C4.02 2.66 2.04 3.32 0 4 C0 2.68 0 1.36 0 0 Z " fill="#EEDEA9" transform="translate(59,65)"/>
<path d="M0 0 C-0.33 0.66 -0.66 1.32 -1 2 C-3.97 2 -6.94 2 -10 2 C-6.19832777 -0.53444815 -4.31588991 -1.33941411 0 0 Z " fill="#2D281B" transform="translate(49,35)"/>
<path d="M0 0 C0.66 0 1.32 0 2 0 C4 3 4 3 3.625 5.1875 C3.41875 5.785625 3.2125 6.38375 3 7 C1.5 5.75 1.5 5.75 0 4 C0 2.68 0 1.36 0 0 Z " fill="#EFDFA9" transform="translate(59,7)"/>
</svg>
